<svg width="151" height="150" viewBox="0 0 151 150" fill="none" xmlns="http://www.w3.org/2000/svg">
<g clip-path="url(#clip0_530_146137)">
<path opacity="0.75" d="M98.3675 30.378C84.383 16.3935 63.0215 14.2785 46.808 24.0375C43.9205 25.7745 41.1965 27.888 38.7065 30.378C25.5155 43.5675 22.886 63.3225 30.821 79.1295C32.7935 83.064 35.423 86.754 38.7065 90.0375C54.0725 105.404 78.3425 106.437 94.9055 93.141C96.1025 92.181 97.2575 91.1475 98.3675 90.0375C99.4775 88.9275 100.511 87.774 101.471 86.577C114.768 70.014 113.735 45.7425 98.3675 30.378ZM94.508 81.003C93.7535 81.9465 92.936 82.8585 92.0615 83.733C91.187 84.6075 90.275 85.4235 89.333 86.1795C76.271 96.666 57.1295 95.8515 45.011 83.733C32.0195 70.74 32.0195 49.674 45.011 36.6825C58.0025 23.691 79.07 23.6895 92.0615 36.6825C104.18 48.7995 104.994 67.941 94.508 81.003Z" fill="#7C2DB9"/>
<path d="M68.5445 102.845C67.8095 102.845 67.073 102.825 66.335 102.788C55.7885 102.246 45.863 97.83 38.3885 90.3555C35.138 87.105 32.4575 83.3955 30.419 79.3305C26.4335 71.391 25.043 62.529 26.3975 53.7045C27.7805 44.6985 31.9265 36.522 38.39 30.06C40.859 27.591 43.613 25.4355 46.577 23.652C54.5855 18.8325 64.1375 16.7745 73.4765 17.8575C78.1475 18.399 82.6595 19.695 86.8865 21.7095C91.259 23.793 95.2295 26.6025 98.687 30.06C106.161 37.533 110.576 47.4585 111.119 58.005C111.657 68.475 108.356 78.7215 101.823 86.859C100.85 88.0725 99.794 89.2485 98.6885 90.3555C97.58 91.464 96.4025 92.52 95.1905 93.492C87.6275 99.564 78.2405 102.845 68.546 102.845H68.5445ZM68.5295 18.441C61.151 18.441 53.7215 20.403 47.0405 24.423C44.1395 26.169 41.4425 28.2795 39.0245 30.696C26.276 43.443 23.1395 62.826 31.223 78.927C33.218 82.9065 35.843 86.538 39.0245 89.7195C47.1485 97.8435 57.833 101.975 68.555 101.976C77.744 101.976 86.9585 98.9445 94.625 92.79C95.8115 91.839 96.965 90.8055 98.0495 89.7195C99.1325 88.6365 100.166 87.4845 101.12 86.2965C114.456 69.684 113.136 45.7815 98.0495 30.6975C89.981 22.629 79.31 18.441 68.5295 18.441Z" fill="#7C2DB9"/>
<path opacity="0.25" d="M94.508 81.003C93.7535 81.9465 92.936 82.8585 92.0615 83.733C91.187 84.6075 90.275 85.4235 89.333 86.1795C76.271 96.666 57.1295 95.8515 45.011 83.733C32.0195 70.74 32.0195 49.674 45.011 36.6825C58.0025 23.691 79.07 23.6895 92.0615 36.6825C104.18 48.7995 104.995 67.941 94.508 81.003Z" fill="#7C2DB9"/>
<path d="M42.1385 51.3C42.089 51.3 42.038 51.291 41.9885 51.2745C41.7545 51.192 41.6315 50.934 41.714 50.7C43.133 46.6905 45.3875 43.1205 48.4175 40.0905C49.2545 39.2535 50.1485 38.463 51.0755 37.7415C51.272 37.5885 51.554 37.6245 51.707 37.8195C51.86 38.016 51.824 38.298 51.629 38.451C50.7305 39.15 49.865 39.9165 49.0535 40.7265C46.1195 43.6605 43.9355 47.1165 42.5615 51C42.4955 51.1845 42.323 51.3 42.137 51.3H42.1385Z" fill="#7C2DB9"/>
<path d="M56.21 85.809C56.144 85.809 56.0765 85.794 56.012 85.7625C53.204 84.387 50.6495 82.557 48.4175 80.325C45.368 77.2755 43.1045 73.68 41.687 69.6405C41.6045 69.4065 41.7275 69.1485 41.963 69.0675C42.1985 68.985 42.455 69.1095 42.536 69.3435C43.907 73.2555 46.1 76.7355 49.0535 79.689C51.215 81.8505 53.6885 83.622 56.408 84.954C56.6315 85.0635 56.723 85.3335 56.6135 85.5555C56.5355 85.7145 56.375 85.8075 56.2085 85.8075L56.21 85.809Z" fill="#7C2DB9"/>
<path d="M96.041 55.392C95.8295 55.392 95.6405 55.242 95.6 55.026C94.565 49.5945 91.9445 44.6505 88.019 40.7265C84.62 37.3275 80.387 34.8705 75.776 33.6195C75.536 33.555 75.395 33.3075 75.4595 33.0675C75.524 32.8275 75.7715 32.6865 76.0115 32.751C80.774 34.0425 85.1465 36.5805 88.6565 40.0905C92.7095 44.1435 95.417 49.2495 96.485 54.858C96.5315 55.1025 96.371 55.338 96.1265 55.3845C96.098 55.3905 96.0695 55.392 96.0425 55.392H96.041Z" fill="#7C2DB9"/>
<path d="M68.5415 93.9285C67.9595 93.9285 67.3775 93.9135 66.794 93.8835C58.4525 93.4545 50.603 89.9625 44.6915 84.0525C38.3225 77.6835 34.8155 69.216 34.8155 60.2085C34.8155 51.201 38.3225 42.7335 44.6915 36.366C51.0605 29.997 59.528 26.4885 68.5355 26.4885C77.543 26.4885 86.0105 29.9955 92.378 36.366C98.2895 42.276 101.781 50.1255 102.209 58.467C102.635 66.747 100.023 74.8515 94.8575 81.2865C94.0955 82.239 93.2615 83.169 92.378 84.0525C91.505 84.9255 90.575 85.7595 89.6135 86.532C83.6315 91.335 76.2065 93.9285 68.5415 93.9285ZM68.5355 27.3885C59.7695 27.3885 51.527 30.8025 45.3275 37.002C32.5325 49.797 32.5325 70.6185 45.3275 83.415C51.716 89.8035 60.1175 93.0525 68.549 93.0525C75.7745 93.0525 83.021 90.6675 89.0495 85.8285C89.9855 85.077 90.8915 84.2655 91.742 83.415C92.6015 82.5555 93.4145 81.6495 94.1555 80.7225C104.643 67.659 103.605 48.864 91.742 37.002C85.544 30.8025 77.3015 27.3885 68.5355 27.3885Z" fill="#7C2DB9"/>
<path d="M101.47 86.577L108.865 93.972L102.301 100.536L94.9055 93.141C96.1025 92.181 97.2575 91.1475 98.366 90.039C99.4745 88.9305 100.51 87.774 101.468 86.5785L101.47 86.577Z" fill="#7C2DB9"/>
<path opacity="0.5" d="M133.875 118.56L126.887 125.547C125.465 126.97 123.158 126.97 121.733 125.547L102.087 105.901C100.665 104.479 100.665 102.172 102.087 100.747L109.076 93.7605C110.498 92.337 112.805 92.337 114.23 93.7605L133.875 113.404C135.297 114.828 135.297 117.135 133.875 118.56Z" fill="#7C2DB9"/>
<path d="M124.31 127.065C123.217 127.065 122.188 126.639 121.415 125.865L101.77 106.219C100.174 104.625 100.174 102.027 101.77 100.429L108.758 93.4425C109.531 92.6685 110.558 92.2425 111.653 92.2425C112.748 92.2425 113.776 92.6685 114.548 93.4425L134.194 113.086C135.788 114.684 135.788 117.28 134.194 118.878L127.205 125.865C126.433 126.639 125.405 127.065 124.312 127.065H124.31ZM111.653 93.144C110.8 93.144 109.999 93.477 109.396 94.08L102.407 101.067C101.162 102.313 101.162 104.34 102.407 105.583L122.053 125.229C122.656 125.832 123.458 126.165 124.312 126.165C125.165 126.165 125.966 125.832 126.569 125.229L133.558 118.242C134.803 116.995 134.803 114.969 133.558 113.722L113.914 94.08C113.311 93.477 112.508 93.144 111.655 93.144H111.653Z" fill="#7C2DB9"/>
<path d="M59.666 56.442C61.4587 56.442 62.912 54.9887 62.912 53.196C62.912 51.4033 61.4587 49.95 59.666 49.95C57.8733 49.95 56.42 51.4033 56.42 53.196C56.42 54.9887 57.8733 56.442 59.666 56.442Z" fill="#7C2DB9"/>
<path d="M77.408 56.442C79.2007 56.442 80.654 54.9887 80.654 53.196C80.654 51.4033 79.2007 49.95 77.408 49.95C75.6153 49.95 74.162 51.4033 74.162 53.196C74.162 54.9887 75.6153 56.442 77.408 56.442Z" fill="#7C2DB9"/>
<path d="M80.1155 70.3905C79.6115 70.581 79.0445 70.4025 78.746 69.954C77.7935 68.5155 75.0635 65.628 68.537 65.628C62.0105 65.628 59.2985 68.5095 58.334 69.948C58.0325 70.3965 57.4685 70.5825 56.9615 70.3905H56.9585C56.264 70.1265 55.991 69.291 56.405 68.67C57.6845 66.75 61.0295 63.3105 68.537 63.3105C76.0445 63.3105 79.3865 66.75 80.669 68.67C81.08 69.2895 80.8085 70.1265 80.1155 70.3905Z" fill="#7C2DB9"/>
<path d="M125.372 122.524C125.26 122.524 125.149 122.482 125.062 122.4L103.94 102.205C103.76 102.034 103.754 101.749 103.925 101.569C104.098 101.389 104.381 101.383 104.561 101.556L125.683 121.75C125.863 121.921 125.869 122.206 125.698 122.386C125.609 122.479 125.491 122.526 125.372 122.526V122.524Z" fill="#7C2DB9"/>
<path opacity="0.5" d="M27.0785 102.33L35.684 131.977L58.5815 124.868L51.4775 103.053L41.1065 98.3535L27.0785 102.33Z" fill="#7C2DB9"/>
<path d="M35.3795 132.543L26.5205 102.021L41.1425 97.875L51.8435 102.725L59.15 125.16L35.378 132.542L35.3795 132.543ZM27.638 102.639L35.9885 131.411L58.013 124.572L51.1115 103.38L41.0705 98.8305L27.6365 102.639H27.638Z" fill="#7C2DB9"/>
<path d="M41.1065 98.3535L44.363 105.407L51.4775 103.053L41.1065 98.3535Z" fill="#7C2DB9"/>
<path d="M34.4405 115.616C34.259 115.616 34.088 115.505 34.019 115.325C33.932 115.092 34.049 114.833 34.2815 114.744L49.628 108.963C49.8605 108.876 50.12 108.993 50.207 109.226C50.294 109.458 50.177 109.718 49.9445 109.806L34.598 115.587C34.5455 115.607 34.4915 115.616 34.439 115.616H34.4405Z" fill="#7C2DB9"/>
<path d="M35.4575 118.939C35.2715 118.939 35.096 118.822 35.033 118.636C34.952 118.401 35.0765 118.146 35.3105 118.063L41.966 115.759C42.2 115.678 42.4565 115.803 42.539 116.037C42.62 116.272 42.4955 116.527 42.2615 116.61L35.606 118.914C35.558 118.93 35.507 118.939 35.459 118.939H35.4575Z" fill="#7C2DB9"/>
<path d="M44.9915 123.252C44.8055 123.252 44.63 123.135 44.5655 122.949C44.4845 122.714 44.609 122.459 44.8445 122.378L51.9155 119.94C52.151 119.859 52.406 119.984 52.487 120.219C52.568 120.455 52.4435 120.71 52.208 120.791L45.137 123.228C45.089 123.245 45.0395 123.254 44.99 123.254L44.9915 123.252Z" fill="#7C2DB9"/>
<path opacity="0.5" d="M122.324 62.5035L114.293 84.687L131.636 90.6015L137.067 73.932L132.777 66.3615L122.324 62.5035Z" fill="#7C2DB9"/>
<path d="M131.922 91.1745L113.714 84.9645L122.054 61.9245L133.086 65.9955L137.555 73.8825L131.921 91.1745H131.922ZM114.872 84.408L131.349 90.027L136.577 73.98L132.465 66.7245L122.591 63.081L114.872 84.408Z" fill="#7C2DB9"/>
<path d="M132.777 66.3615L131.613 72.183L137.067 73.932L132.777 66.3615Z" fill="#7C2DB9"/>
<path d="M133.173 77.5305C133.134 77.5305 133.094 77.5245 133.053 77.514L120.974 74.178C120.734 74.112 120.594 73.8645 120.66 73.6245C120.726 73.3845 120.974 73.245 121.214 73.311L133.293 76.647C133.533 76.713 133.673 76.9605 133.607 77.2005C133.551 77.4 133.371 77.5305 133.173 77.5305Z" fill="#7C2DB9"/>
<path d="M125.372 78.279C125.328 78.279 125.283 78.273 125.24 78.2595L120.093 76.686C119.856 76.614 119.721 76.362 119.795 76.1235C119.867 75.8865 120.119 75.753 120.357 75.825L125.504 77.3985C125.741 77.4705 125.876 77.7225 125.802 77.961C125.742 78.1545 125.565 78.279 125.372 78.279Z" fill="#7C2DB9"/>
<path d="M129.636 85.3365C129.593 85.3365 129.548 85.3305 129.504 85.317L124.041 83.64C123.804 83.5665 123.671 83.3145 123.743 83.0775C123.816 82.8405 124.068 82.707 124.305 82.779L129.768 84.456C130.005 84.5295 130.139 84.7815 130.067 85.0185C130.007 85.212 129.83 85.3365 129.636 85.3365Z" fill="#7C2DB9"/>
<path opacity="0.5" d="M112.164 27.612L111.828 45.948L126.072 45.9435L125.88 32.316L120.824 27.8235L112.164 27.612Z" fill="#7C2DB9"/>
<path d="M111.37 46.3995L111.722 27.1515L121 27.3795L126.329 32.1135L126.53 46.3965L111.371 46.401L111.37 46.3995ZM112.606 28.074L112.286 45.4995L125.617 45.495L125.434 32.5215L120.647 28.2705L112.606 28.074Z" fill="#7C2DB9"/>
<path d="M120.824 27.8235L121.43 32.4L125.88 32.316L120.824 27.8235Z" fill="#7C2DB9"/>
<path d="M114.081 36.6405C113.844 36.6405 113.646 36.456 113.633 36.2175C113.618 35.97 113.807 35.757 114.056 35.742L123.78 35.163C124.029 35.148 124.241 35.337 124.256 35.586C124.271 35.835 124.082 36.0465 123.833 36.0615L114.108 36.6405C114.099 36.6405 114.09 36.6405 114.081 36.6405Z" fill="#7C2DB9"/>
<path d="M114.074 38.706C113.832 38.706 113.633 38.514 113.624 38.271C113.616 38.022 113.811 37.815 114.059 37.806L118.241 37.671C118.49 37.6635 118.697 37.8585 118.706 38.106C118.713 38.355 118.518 38.562 118.271 38.571L114.089 38.706C114.089 38.706 114.078 38.706 114.074 38.706Z" fill="#7C2DB9"/>
<path d="M118.725 42.8295C118.484 42.8295 118.283 42.6375 118.275 42.393C118.268 42.144 118.463 41.937 118.712 41.9295L123.153 41.7915C123.401 41.784 123.609 41.979 123.617 42.228C123.624 42.477 123.429 42.684 123.18 42.6915L118.739 42.8295C118.739 42.8295 118.73 42.8295 118.724 42.8295H118.725Z" fill="#7C2DB9"/>
<path opacity="0.5" d="M46.808 24.0375C45.4925 24.8295 44.2115 25.698 42.9725 26.6445C41.489 27.777 40.0625 29.022 38.7065 30.378C25.5155 43.5675 22.886 63.3225 30.821 79.1295L18.1925 80.289L13.9325 21.9615L41.492 20.121L46.8065 24.0375H46.808Z" fill="#7C2DB9"/>
<path d="M17.777 80.7795L13.451 21.5445L41.627 19.662L47.618 24.0765L47.0405 24.4245C45.7325 25.212 44.456 26.079 43.2455 27.003C41.7695 28.131 40.349 29.373 39.0245 30.6975C26.276 43.4445 23.1395 62.8275 31.223 78.9285L31.5185 79.518L17.777 80.7795ZM14.4155 22.3815L18.608 79.8L30.128 78.7425C26.366 70.9545 25.076 62.313 26.396 53.706C27.779 44.7 31.925 36.5235 38.3885 30.0615C39.7415 28.7085 41.1905 27.4395 42.6995 26.289C43.7585 25.4805 44.867 24.714 46.004 24.0045L41.36 20.583L14.4155 22.383V22.3815Z" fill="#7C2DB9"/>
<path d="M46.808 24.0375C45.4925 24.8295 44.2115 25.698 42.9725 26.6445L41.4935 20.121L46.808 24.0375Z" fill="#7C2DB9"/>
<g opacity="0.5">
<path d="M63.0365 113.076C64.7447 113.076 66.1295 111.691 66.1295 109.983C66.1295 108.275 64.7447 106.89 63.0365 106.89C61.3283 106.89 59.9435 108.275 59.9435 109.983C59.9435 111.691 61.3283 113.076 63.0365 113.076Z" fill="#7C2DB9"/>
<path d="M81.4955 106.689C82.1276 106.689 82.64 106.177 82.64 105.544C82.64 104.912 82.1276 104.4 81.4955 104.4C80.8634 104.4 80.351 104.912 80.351 105.544C80.351 106.177 80.8634 106.689 81.4955 106.689Z" fill="#7C2DB9"/>
<path d="M91.4375 116.853C93.2128 116.853 94.652 115.414 94.652 113.639C94.652 111.863 93.2128 110.424 91.4375 110.424C89.6621 110.424 88.223 111.863 88.223 113.639C88.223 115.414 89.6621 116.853 91.4375 116.853Z" fill="#7C2DB9"/>
<path d="M100.314 24.375C101.489 24.375 102.441 23.4227 102.441 22.248C102.441 21.0733 101.489 20.121 100.314 20.121C99.1398 20.121 98.1875 21.0733 98.1875 22.248C98.1875 23.4227 99.1398 24.375 100.314 24.375Z" fill="#7C2DB9"/>
</g>
<g opacity="0.25">
<path d="M137.419 61.92H132.613C129.001 61.92 125.731 60.456 123.364 58.089C120.995 55.7205 119.533 52.452 119.533 48.84C119.533 47.8455 119.644 46.878 119.854 45.9465L111.829 45.9495L112.165 27.6135L120.824 27.825L125.881 32.3175L125.954 37.5795C127.904 36.423 130.181 35.7585 132.613 35.7585H137.419C144.643 35.7585 150.5 29.9025 150.5 22.68C150.5 19.068 149.036 15.798 146.669 13.431C144.301 11.0625 141.032 9.6 137.42 9.6H13.5815C6.3575 9.597 0.5 15.4545 0.5 22.6785C0.5 26.2905 1.964 29.5605 4.331 31.926C6.6995 34.2945 9.968 35.757 13.58 35.757H14.939L13.931 21.963L41.492 20.121L46.8065 24.0375C63.0215 14.28 84.3815 16.3935 98.366 30.378C113.732 45.7425 114.766 70.014 101.47 86.5785L108.863 93.972L109.076 93.7605C110.446 92.3895 112.636 92.343 114.067 93.6135C116.348 90.387 120.055 88.242 124.27 88.089L114.292 84.6855L122.323 62.502L132.776 66.36L137.066 73.9305L132.457 88.0785H137.417C144.641 88.0785 150.499 82.2225 150.499 74.997C150.499 71.385 149.035 68.115 146.668 65.7495C144.299 63.381 141.031 61.9185 137.419 61.9185V61.92ZM100.315 24.375C99.1385 24.375 98.1875 23.424 98.1875 22.248C98.1875 21.072 99.1385 20.121 100.315 20.121C101.491 20.121 102.442 21.0735 102.442 22.248C102.442 23.4225 101.489 24.375 100.315 24.375Z" fill="#7C2DB9"/>
<path d="M137.419 114.24H134.498C135.25 115.623 135.044 117.389 133.876 118.56L126.887 125.547C125.465 126.97 123.157 126.97 121.733 125.547L102.088 105.902C100.666 104.48 100.666 102.172 102.088 100.749L102.301 100.536L94.9055 93.141C78.3425 106.439 54.0725 105.404 38.7065 90.0375C35.423 86.754 32.7935 83.064 30.821 79.1295L18.1925 80.289L16.847 61.875C16.49 61.9035 16.13 61.92 15.7655 61.92H13.58C6.35601 61.92 0.498509 67.776 0.498509 74.9985C0.498509 78.6105 1.96251 81.882 4.32951 84.2475C6.69801 86.616 9.96651 88.0785 13.5785 88.0785H27.605C31.217 88.0785 34.487 89.5425 36.854 91.9095C38.6345 93.6885 39.9035 95.9805 40.424 98.544L41.1035 98.352L51.4745 103.052L58.5785 124.866L35.681 131.976L30.443 113.93C29.5295 114.132 28.58 114.239 27.605 114.239H13.5785C6.35451 114.239 0.497009 120.096 0.497009 127.32C0.497009 130.932 1.96101 134.202 4.32801 136.569C6.69651 138.938 9.96501 140.4 13.577 140.4H137.414C144.638 140.4 150.496 134.543 150.496 127.318C150.496 123.707 149.032 120.437 146.665 118.07C144.296 115.701 141.028 114.239 137.416 114.239L137.419 114.24ZM63.0365 113.076C61.328 113.076 59.942 111.691 59.942 109.983C59.942 108.274 61.328 106.89 63.0365 106.89C64.745 106.89 66.1295 108.274 66.1295 109.983C66.1295 111.691 64.745 113.076 63.0365 113.076ZM81.4955 106.689C80.8625 106.689 80.351 106.176 80.351 105.545C80.351 104.913 80.8625 104.4 81.4955 104.4C82.1285 104.4 82.64 104.912 82.64 105.545C82.64 106.178 82.127 106.689 81.4955 106.689ZM91.4375 116.853C89.663 116.853 88.2245 115.415 88.2245 113.639C88.2245 111.863 89.663 110.425 91.4375 110.425C93.212 110.425 94.652 111.864 94.652 113.639C94.652 115.413 93.2135 116.853 91.4375 116.853Z" fill="#7C2DB9"/>
</g>
<g opacity="0.25">
<path d="M16.889 106.35C20.612 106.35 23.63 103.332 23.63 99.609C23.63 95.886 20.612 92.868 16.889 92.868C13.1661 92.868 10.148 95.886 10.148 99.609C10.148 103.332 13.1661 106.35 16.889 106.35Z" fill="#7C2DB9"/>
</g>
</g>
<defs>
<clipPath id="clip0_530_146137">
<rect width="150" height="150" fill="white" transform="translate(0.5)"/>
</clipPath>
</defs>
</svg>
